<?xml version="1.0" standalone="no"?><svg xmlns="http://www.w3.org/2000/svg" viewBox="0 0 1440 320"><path fill="#121212" fill-opacity="1" d="M0,160L15,160C30,160,60,160,90,160C120,160,150,160,180,170.7C210,181,240,203,270,229.3C300,256,330,288,360,266.7C390,245,420,171,450,138.7C480,107,510,117,540,138.7C570,160,600,192,630,202.7C660,213,690,203,720,202.7C750,203,780,213,810,202.7C840,192,870,160,900,128C930,96,960,64,990,48C1020,32,1050,32,1080,37.3C1110,43,1140,53,1170,69.3C1200,85,1230,107,1260,106.7C1290,107,1320,85,1350,69.3C1380,53,1410,43,1425,37.3L1440,32L1440,320L1425,320C1410,320,1380,320,1350,320C1320,320,1290,320,1260,320C1230,320,1200,320,1170,320C1140,320,1110,320,1080,320C1050,320,1020,320,990,320C960,320,930,320,900,320C870,320,840,320,810,320C780,320,750,320,720,320C690,320,660,320,630,320C600,320,570,320,540,320C510,320,480,320,450,320C420,320,390,320,360,320C330,320,300,320,270,320C240,320,210,320,180,320C150,320,120,320,90,320C60,320,30,320,15,320L0,320Z"></path></svg>